<?xml version="1.0" encoding="UTF-8" standalone="no"?><svg width="121" height="135" viewBox="0 0 121 135" fill="none" xmlns="http://www.w3.org/2000/svg">
<path d="M32.8169 89.5913C42.0445 96.3022 51.2726 101.671 60.5002 101.671C69.7278 101.671 78.9559 96.3022 88.1836 89.5913C80.5775 87.2759 76.7186 83.8197 76.6069 79.2226C76.6069 78.4032 76.6129 77.2395 76.6185 75.0545C76.6185 74.7075 76.6193 74.3522 76.621 73.9884C76.6361 68.1296 76.6607 60.3985 76.6955 52.5465C83.9092 43.196 81.2592 32.2339 78.9987 32.5072C76.2274 32.8445 52.2169 10.0596 47.6114 8.89135C43.0059 7.72311 31.3069 11.4946 29.2936 22.0017C27.2802 32.5088 26.4386 58.9931 34.0752 69.5667C36.2483 72.5756 39.6709 73.7526 44.3432 73.0975C44.3498 75.2966 44.3628 76.5308 44.3935 79.0213C44.3337 83.8276 40.4751 87.2785 32.8169 89.5913Z" fill="url(#paint0_linear_652_270)"/>
<path d="M44.3936 73.09C55.4669 71.8317 62.5136 67.05 62.5136 67.05C62.5136 67.05 54.4602 77.1167 44.3936 79.13V73.09Z" fill="#FC9F6A"/>
<path d="M80.3819 52.705C83.8499 44.3648 97.7469 27.3788 85.7676 16.8088C81.7409 -2.82121 59.4936 -0.648321 44.6452 3.88168C34.6656 6.92634 27.1292 12.9417 25.5185 8.41168C15.4519 16.8088 20.4933 25.0217 27.1292 27.3788C33.1521 29.518 43.3366 31.6571 60.6542 29.6438C63.7477 29.2839 63.0999 38.7581 64.7529 39.7824C67.2328 41.3191 69.1576 31.6571 75.9566 34.5583C82.7556 37.4595 78.7209 50.9116 71.4226 50.9116C68.9059 50.9116 67.6476 57.831 74.4426 61.1026C79.3752 63.5267 78.1285 58.1244 80.3819 52.705Z" fill="url(#paint1_linear_652_270)"/>
<path d="M113.35 104.955C118.142 114.698 120.9 137.168 120.9 137.168H0.100098C0.100098 137.168 2.85937 114.696 7.6501 104.955C12.4408 95.2146 40.4171 86.1803 40.4171 86.1803C55.876 92.2168 65.3361 92.2168 80.5685 86.1768C80.5685 86.1768 108.558 95.2121 113.35 104.955Z" fill="url(#paint2_linear_652_270)"/>
<path d="M64.0235 89.7001L66.5402 136.007H54.4602L56.9769 89.7001C56.9769 89.7001 59.3259 87.1834 60.5002 87.1834C61.6745 87.1834 64.0235 89.7001 64.0235 89.7001Z" fill="url(#paint3_linear_652_270)"/>
<path d="M64.5968 99.1084L56.6819 94.5351L56.9768 89.7001C58.5429 88.0223 59.7173 87.1834 60.5002 87.1834C61.283 87.1834 62.4575 88.0223 64.0235 89.7001L64.5973 99.1084H64.5968Z" fill="#645050"/>
<path d="M60.5002 87.1794L55.4669 96.2434L39.8635 86.6801L44.3935 80.1367L60.5002 86.0866L76.6069 80.1367L81.1369 86.6801L65.5335 96.2434L60.5002 87.1794Z" fill="white"/>
<defs>
<linearGradient id="paint0_linear_652_270" x1="58.0448" y1="8.68701" x2="58.0448" y2="101.671" gradientUnits="userSpaceOnUse">
<stop stop-color="#F7B186"/>
<stop offset="1" stop-color="#FFC299"/>
</linearGradient>
<linearGradient id="paint1_linear_652_270" x1="55.1852" y1="0.805237" x2="55.1852" y2="61.6987" gradientUnits="userSpaceOnUse">
<stop stop-color="#1D0024"/>
<stop offset="1" stop-color="#100014"/>
</linearGradient>
<linearGradient id="paint2_linear_652_270" x1="60.5001" y1="86.1768" x2="60.5001" y2="137.168" gradientUnits="userSpaceOnUse">
<stop stop-color="#1D0024"/>
<stop offset="1" stop-color="#100014"/>
</linearGradient>
<linearGradient id="paint3_linear_652_270" x1="60.5002" y1="87.1834" x2="60.5002" y2="136.007" gradientUnits="userSpaceOnUse">
<stop stop-color="#806A6A"/>
<stop offset="1" stop-color="#665654"/>
</linearGradient>
</defs>
</svg>
